<?xml version="1.0" standalone="no"?>
<!DOCTYPE svg PUBLIC "-//W3C//DTD SVG 20010904//EN"
 "http://www.w3.org/TR/2001/REC-SVG-20010904/DTD/svg10.dtd">
<svg version="1.0" xmlns="http://www.w3.org/2000/svg"
 width="480.000000pt" height="480.000000pt" viewBox="0 0 480.000000 480.000000"
 preserveAspectRatio="xMidYMid meet">
<metadata>
Created by potrace 1.15, written by Peter Selinger 2001-2017
</metadata>
<g transform="translate(0.000000,480.000000) scale(0.100000,-0.100000)"
fill="#000000" stroke="none">
<path d="M1527 2876 c-83 -31 -121 -96 -122 -206 0 -88 27 -149 83 -187 64
-43 166 -39 226 8 107 84 95 304 -21 371 -42 25 -119 32 -166 14z m141 -46
c95 -58 95 -262 0 -320 -105 -64 -218 19 -218 160 0 107 59 180 145 180 23 0
54 -9 73 -20z"/>
<path d="M3240 2879 c-91 -28 -135 -95 -135 -209 0 -119 44 -183 145 -210 51
-14 133 -7 186 15 l34 14 0 90 0 91 -70 0 c-63 0 -70 -2 -70 -20 0 -17 7 -20
45 -20 l45 0 0 -60 c0 -56 -2 -61 -26 -70 -37 -14 -119 -12 -158 4 -55 23 -79
67 -83 155 -7 122 37 180 140 189 51 4 77 -3 160 -46 4 -2 7 8 7 23 0 21 -8
29 -37 42 -48 20 -138 26 -183 12z"/>
<path d="M990 2671 l0 -211 25 0 25 0 2 176 3 176 96 -174 c95 -172 96 -173
132 -176 l37 -3 0 210 0 211 -25 0 -25 0 -2 -176 -3 -177 -96 174 c-95 173
-96 174 -132 177 l-37 3 0 -210z"/>
<path d="M2060 2670 l0 -210 25 0 25 0 0 210 0 210 -25 0 -25 0 0 -210z"/>
<path d="M2230 2671 l0 -211 25 0 25 0 2 182 3 183 55 -143 c54 -140 55 -142
85 -142 30 0 31 2 85 142 l55 143 3 -183 2 -182 25 0 25 0 0 211 0 210 -42 -3
-42 -3 -55 -138 c-42 -105 -57 -134 -63 -120 -5 10 -30 72 -56 138 l-48 120
-42 3 -42 3 0 -210z"/>
<path d="M2812 2798 c-17 -46 -54 -141 -81 -211 l-50 -128 27 3 c22 2 30 12
47 58 l21 55 99 0 99 0 21 -55 c17 -46 25 -56 47 -58 l27 -3 -50 128 c-27 70
-64 165 -81 211 -30 79 -33 82 -63 82 -30 0 -33 -3 -63 -82z m102 -68 c20 -50
36 -95 36 -100 0 -6 -32 -10 -75 -10 -43 0 -75 4 -75 10 0 11 71 190 75 190 2
0 19 -41 39 -90z"/>
<path d="M3570 2670 l0 -210 135 0 c128 0 135 1 135 20 0 19 -7 20 -110 20
l-110 0 0 85 0 85 105 0 c98 0 105 1 105 20 0 19 -7 20 -105 20 l-105 0 0 65
0 65 105 0 c98 0 105 1 105 20 0 19 -7 20 -130 20 l-130 0 0 -210z"/>
<path d="M982 2088 c-17 -46 -54 -141 -81 -211 l-50 -128 27 3 c22 2 30 12 47
58 l21 55 99 0 99 0 21 -55 c17 -46 25 -56 47 -58 l27 -3 -50 128 c-27 70 -64
165 -81 211 -30 79 -33 82 -63 82 -30 0 -33 -3 -63 -82z m102 -68 c20 -50 36
-95 36 -100 0 -6 -32 -10 -75 -10 -43 0 -75 4 -75 10 0 11 71 190 75 190 2 0
19 -41 39 -90z"/>
<path d="M1261 2043 c27 -71 64 -165 81 -210 30 -80 33 -83 63 -83 30 0 33 3
63 83 17 45 54 140 81 210 l50 128 -26 -3 c-24 -3 -32 -17 -94 -176 -37 -95
-69 -175 -72 -178 -3 -3 -31 62 -62 143 -32 81 -64 163 -71 181 -10 24 -19 32
-38 32 l-24 0 49 -127z"/>
<path d="M1702 2088 c-17 -46 -54 -141 -81 -211 l-50 -128 27 3 c22 2 30 12
47 58 l21 55 99 0 99 0 21 -55 c17 -46 25 -56 47 -58 l27 -3 -50 128 c-27 70
-64 165 -81 211 -30 79 -33 82 -63 82 -30 0 -33 -3 -63 -82z m102 -68 c20 -50
36 -95 36 -100 0 -6 -32 -10 -75 -10 -43 0 -75 4 -75 10 0 11 71 190 75 190 2
0 19 -41 39 -90z"/>
<path d="M2020 1960 l0 -210 25 0 25 0 0 210 0 210 -25 0 -25 0 0 -210z"/>
<path d="M2190 1960 l0 -210 130 0 c123 0 130 1 130 20 0 19 -7 20 -105 20
l-105 0 0 190 0 190 -25 0 -25 0 0 -210z"/>
<path d="M2602 2088 c-17 -46 -54 -141 -81 -211 l-50 -128 27 3 c22 2 30 12
47 58 l21 55 99 0 99 0 21 -55 c17 -46 25 -56 47 -58 l27 -3 -50 128 c-27 70
-64 165 -81 211 -30 79 -33 82 -63 82 -30 0 -33 -3 -63 -82z m102 -68 c20 -50
36 -95 36 -100 0 -6 -32 -10 -75 -10 -43 0 -75 4 -75 10 0 11 71 190 75 190 2
0 19 -41 39 -90z"/>
<path d="M2920 1960 l0 -210 88 0 c103 0 151 11 181 44 47 50 32 148 -27 176
-27 12 -27 13 -6 22 45 21 57 89 24 131 -27 34 -76 47 -177 47 l-83 0 0 -210z
m208 154 c15 -10 22 -25 22 -49 0 -49 -28 -65 -112 -65 l-68 0 0 65 0 65 68 0
c45 0 75 -5 90 -16z m17 -179 c17 -16 25 -35 25 -60 0 -25 -8 -44 -25 -60 -21
-22 -33 -25 -100 -25 l-75 0 0 85 0 85 75 0 c67 0 79 -3 100 -25z"/>
<path d="M3320 1960 l0 -210 130 0 c123 0 130 1 130 20 0 19 -7 20 -105 20
l-105 0 0 190 0 190 -25 0 -25 0 0 -210z"/>
<path d="M3640 1960 l0 -210 135 0 c128 0 135 1 135 20 0 19 -7 20 -110 20
l-110 0 0 85 0 85 105 0 c98 0 105 1 105 20 0 19 -7 20 -105 20 l-105 0 0 65
0 65 105 0 c98 0 105 1 105 20 0 19 -7 20 -130 20 l-130 0 0 -210z"/>
</g>
</svg>
